<svg xmlns="http://www.w3.org/2000/svg" width="38" height="38" fill="none" viewBox="0 0 38 38"><defs><clipPath id="clip8_2023"><rect id="Shopping bag" width="37" height="37" fill="#fff" fill-opacity="0" rx="0" transform="translate(.5 .5)"/></clipPath></defs><rect id="Shopping bag" width="37" height="37" fill="#fff" fill-opacity="0" rx="0" transform="translate(.5 .5)"/><g clip-path="url(#clip8_2023)"><path id="Icon" stroke="#1e1e1e" stroke-linecap="round" stroke-linejoin="round" stroke-opacity="1" stroke-width="3.5" d="M4.75 9.49v22.17c0 .84.33 1.65.92 2.24.6.59 1.4.93 2.24.93h22.17c.84 0 1.64-.34 2.24-.93.59-.59.93-1.4.93-2.24V9.49L28.5 3.16h-19zm0 0h28.5m-7.92 6.34A6.336 6.336 0 0 1 19 22.16a6.336 6.336 0 0 1-6.34-6.33"/></g></svg>