<svg xmlns="http://www.w3.org/2000/svg" xml:space="preserve" id="Layer_1" x="0" y="0" viewBox="0 0 4000 4000"><path id="bg" d="M0 0h4000v4000H0z" style="fill:none"/><path d="m1623.501 3262.8-1.569 243.339 224.412 129.204-74.936 106.575" style="fill:none;stroke:#000;stroke-width:19.6298;stroke-linecap:round;stroke-linejoin:round;stroke-miterlimit:10"/><path d="M1764.408 3749.854c-25.44 4.888-23.348-114.939 85.781-117.178-49.708 59.673-67.403 98.322-85.781 117.178"/><path d="m1766.365 3275.36-116.281 453.35-143.887 7.183" style="fill:none;stroke:#000;stroke-width:19.6298;stroke-linecap:round;stroke-linejoin:round;stroke-miterlimit:10"/><path d="M1499.986 3741.956c-20.708-15.565 69.477-94.494 144.43-15.144-77.598 3.248-118.117 16.095-144.43 15.144"/><path d="m1852.711 2827.93 169.553 282.587-223.976 143.555m-32.708-409.658-301.426-138.938 11.31-367.951" style="fill:none;stroke:#000;stroke-width:19.6298;stroke-linecap:round;stroke-linejoin:round;stroke-miterlimit:10"/><path d="M1488.706 2331.261c.482-13.192-7.086-22.586-17.974-28.394-13.068-11.464-25.14-31.099-29.186-40.47-1.83-4.237-6.743-6.218-10.976-4.43-4.232 1.79-6.18 6.676-4.35 10.913 2.573 5.959 8.378 16.427 16.083 26.898-8.413-.299-15.579.865-21.293 3.628-7.312-3.793-16.604-9.056-23.227-12.81-5.52-3.129-10.734-6.084-14.991-8.375-4.072-2.192-9.126-.69-11.29 3.352-2.164 4.044-.617 9.099 3.454 11.29 4.096 2.205 9.233 5.116 14.67 8.198 7.749 4.391 14.022 7.898 19.178 10.67a31 31 0 0 0-1.169 2.831c-16.693-3.196-36.929-6.938-48.682-8.64-4.597-.655-8.778 2.492-9.404 7.044s2.571 8.778 7.139 9.44c11.503 1.665 31.941 5.455 48.644 8.656.157 3.053.669 5.887 1.507 8.498-12.409-.987-26.329-1.802-36.178-1.516a8.254 8.254 0 0 0-8.032 8.566c.157 4.195 3.396 7.574 7.461 8.033q.587.067 1.193.05c14.028-.406 37.972 1.664 51.719 3.014 6.449 3.266 14.245 5.075 22.696 5.451 23.033 1.026 42.169-8.928 43.008-31.897"/><path d="M1683.333 3319.63c-48.028-13.125-81.583-36.813-78.771-53.745 20.556-123.768 109.733-301.208 128.499-470.221l328.535-1202.226c4.525-16.557 47.128-19.34 95.156-6.216 48.028 13.125 83.295 37.188 78.771 53.745l-327.708 1199.197c-64.778 123.89-89.831 382.325-129.326 473.25-6.838 15.744-47.127 19.341-95.156 6.216M2476.541 250c-86.825 312.199-137.454 632.754-195.946 949.862l-29.352-3.469c68.354-316.432 128.942-636.499 225.298-946.393" style="fill:#ef9b3f"/><path d="M2289.249 1568.412c-39.272 138.76-162.219 278.557-211.564 334.783-8.814 10.04-19.77 6.811-22.016-6.487-12.241-72.637-68.308-254.721-29.233-393.386 39.222-139.206 196.901-315.416 243.181-364.638 8.549-9.102 18.821-6.073 21.324 6.284 14.431 66.287 36.457 294.608-1.692 423.444" style="fill:#ffae4a"/><path d="M2255.478 1240.739c-9.517 52.695-22.262 105.201-32.053 157.7-20.8 99.833-26.137 214.041-84.352 297.277 23.608-162.168 14.624-316.796 116.405-454.977" style="fill:#ffc663"/><path d="M2305.497 1480.034c-44.645 137.949-138.618 217.322-198.296 320.924-3.24 5.626-8.628 4.574-9.027-1.726-52.745-308.235 6.712-435.496 191.469-658.482-12.73-50.342-248.038 270.687-263.208 362.567-39.073 138.677 16.992 320.753 29.237 393.391 2.274 13.87 14.139 16.506 22.817 5.556l-.002.03c63.528-69.204 221.184-258.923 227.01-422.26m-131.248-914.789c-128.274 303.894-228.371 628.961-249.536 958.708l-35.794-.637c33.299-333.149 145.111-656.404 285.33-958.071" style="fill:#ef9b3f"/><path d="M2058.19 1745.276c15.232 133.146-16.111 327.418-44.441 405.195-5.185 14.235-18.002 20.251-25.749 12.087-42.33-44.606-175.079-136.92-190.311-270.066-15.289-133.651 78.815-385.865 107.44-458.026 38.572-75.118 146.915 212.853 153.061 310.81" style="fill:#ffae4a"/><path d="M2026.004 2106.635c-69.992-129.34-156.119-156.51-171.351-289.656-13.063-114.192 34.765-295.324 72.346-396.367-7.491-3.578-17.246 2.196-21.871 13.854-110.299 299.411-200.52 518.652 82.884 728.08 24.985 17.112 31.718-33.318 38.734-55.185-.251-.227-.559-.387-.742-.726" style="fill:#ef9b3f"/><path d="M1931.689 1521.222c11.385 46.499 19.303 95.338 30.321 141.901 18.661 90.222 59.392 179.252 32.028 285.884-41.002-138.735-113.173-246.816-62.349-427.785" style="fill:#ffc663"/><path d="M1896.741 909.366c-88.516 299.406-164.645 608.62-176.312 918.48-.03 1.693-.044 5.099-.021 6.781l-33.751 3.677c20.946-315.672 109.787-628.093 210.084-928.938" style="fill:#ef9b3f"/><path d="M1906.652 2045.766c41.521 119.007 47.766 316.481 34.257 402.56-2.473 15.755-14.296 27.14-23.753 22.875-51.674-23.307-204.409-51.458-245.93-170.465-41.679-119.458 4.396-399.591 19.305-480.497 22.415-88.135 189.968 133.046 216.121 225.527" style="fill:#ffae4a"/><path d="M1944.758 2401.462c-96.325-91.048-189.012-78.399-230.533-197.406-35.61-102.066-22.56-294.461-4.221-406.635-8.3-.047-17.064 9.747-19.473 22.818-47.651 321.201-112.788 573.962 226.632 650.946 28.052 5.409 25.77-44.224 28.492-69.368-.301-.103-.645-.117-.897-.355" style="fill:#ef9b3f"/><path d="M1734.459 1890.381c20.654 38.862 38.248 81.478 58.542 120.565 36.595 76.931 95.345 142.916 88.466 255.826-68.756-112.823-163.129-182.818-147.008-376.391" style="fill:#ffc663"/><path d="M1799.802 2394.88c44.056 116.506 54.131 312.39 42.193 398.439-2.185 15.749-13.86 27.541-23.457 23.69-343.731-62.966-281.871-317.014-240.487-637.316 20.772-88.403 193.557 124.162 221.751 215.187" style="fill:#ffae4a"/><path d="M1844.968 2746.615c-98.653-86.499-191.655-70.149-235.711-186.656-37.785-99.921-28.35-291.548-12.055-403.713-8.351.292-16.98 10.378-19.152 23.459-41.571 321.64-102.874 574.166 240.496 637.289 28.229 4.281 25.1-44.799 27.332-70.063-.306-.09-.652-.09-.91-.316" style="fill:#ef9b3f"/><path d="M1623.589 2247.579c21.524 37.756 40.043 79.365 61.21 117.359 38.293 74.917 98.664 138.056 93.911 250.483-71.337-109.252-167.622-174.92-155.121-367.842" style="fill:#ffc663"/><path d="M2632.271 557.792c-82.526 364.706-60.24 750.924-202.829 1102.776l-32.183-15.443c151.296-343.402 141.387-728.618 235.012-1087.333" style="fill:#ef9b3f"/><path d="M2160.201 1773.153c-55.013 62.927-216.762 396.23-152.464 394.804 354.162-34.773 388.828-266.26 445.998-583.584 4.442-84.302-237.811 107.698-293.534 188.78" style="fill:#ffae4a"/><path d="M2003.109 2100.379c127.672-75.323 217.095-54.521 298.721-161.198 70.007-91.491 120.969-271.767 139.844-377.922 8.401.765 13.99 10.732 12.065 23.128-57.42 318.703-92.232 548.61-446.002 583.55-30.554 1.991-10.834-44.691-5.652-67.314.338-.068.69-.047 1.024-.244" style="fill:#ef9b3f"/><path d="M2385.972 1645.365c-33.823 34.145-65.808 72.079-99.343 106.468-62.621 68.01-143.976 123.677-174.672 229.398 107.081-98.268 225.762-154.195 274.015-335.866" style="fill:#ffc663"/><path d="M2650.528 1225.87c-28.638 281.572-106.61 563.715-228.71 818.945-1.594 3.167-4.628 9.267-6.324 12.464l-26.727-19.291c133.598-249.201 222.006-529.725 261.761-812.118" style="fill:#ef9b3f"/><path d="M2134.852 2108.126c-95.328 81.61-200.364 248.674-232.382 329.695-5.86 14.829-1.582 30.615 8.595 31.715 55.604 6.009 199.38 58.887 294.708-22.723 95.689-81.92 198.094-346.659 226.312-423.928 25.171-87.403-228.412 18.906-297.233 85.241" style="fill:#ffae4a"/><path d="M1922.875 2395.482c127.694-29.83 199.927 27.887 295.255-53.723 81.758-69.992 167.861-242.424 208.962-348.378 7.064 4.151 9.552 17.021 4.993 29.504-123.336 306.558-196.93 550.731-521.018 446.634-26.463-9.404.367-51.004 10.868-74.184.308.064.607.225.94.147" style="fill:#ef9b3f"/><path d="M2359.396 2061.159c-37.148 23.067-73.597 50.914-110.553 74.356-69.898 47.829-153.061 75.034-204.253 175.834 115.307-62.523 230.712-75.193 314.806-250.19" style="fill:#ffc663"/><path d="M2049.158 2463.022c-96.215 78.174-203.697 241.932-237.032 322.134-6.101 14.679-2.153 30.74 7.932 32.268 55.102 8.347 196.87 67.503 293.085-10.671 96.58-78.471 203.307-340.622 232.798-417.205 26.705-86.835-226.985 9.433-296.783 73.474" style="fill:#ffae4a"/><path d="M1833.194 2743.398c127.371-24.733 198.002 36.333 294.217-41.841 82.519-67.046 171.302-236.989 214.132-341.902 6.936 4.469 9.161 17.522 4.397 29.894-128.799 303.858-205.452 545.783-525.88 427.859-26.049-10.469 1.229-51.172 12.203-74.196.304.075.598.25.931.186" style="fill:#ef9b3f"/><path d="M2273.029 2425.053c-37.327 21.674-74.052 48.186-111.196 70.245-70.32 45.236-153.42 69.169-206.173 168.478 115.692-58.141 230.533-66.114 317.369-238.723" style="fill:#ffc663"/><path d="M1932.097 2482.116c-31.365 102.869 120.816 152.107 155.656 50.376 31.363-102.866-120.817-152.103-155.656-50.376z" style="fill:#fff;stroke:#000;stroke-width:8.2004;stroke-miterlimit:10"/><path d="M1951.595 2506.469c-10.225 46.358 58.454 62.733 70.248 16.755 10.224-46.357-58.455-62.731-70.248-16.755"/><path d="M1953.552 2509.858c-2.986 12.773 16.414 17.4 19.513 4.654 2.987-12.773-16.414-17.399-19.513-4.654m21.751-13.373c-1.923 7.569 10.008 10.415 11.708 2.792 1.923-7.568-10.008-10.414-11.708-2.792" style="fill:#fff"/><path d="M1719.793 2392.834c-31.365 102.869 120.816 152.106 155.656 50.376 31.363-102.866-120.817-152.103-155.656-50.376z" style="fill:#fff;stroke:#000;stroke-width:8.2004;stroke-miterlimit:10"/><path d="M1739.291 2417.187c-10.225 46.358 58.454 62.733 70.248 16.755 10.224-46.357-58.455-62.731-70.248-16.755"/><path d="M1741.249 2420.576c-2.986 12.773 16.414 17.4 19.513 4.654 2.986-12.772-16.414-17.399-19.513-4.654m21.751-13.373c-1.923 7.569 10.008 10.415 11.708 2.792 1.922-7.568-10.008-10.414-11.708-2.792" style="fill:#fff"/><path d="M1968.822 2586.404c-5.011 22.884 89.494 40.418 93.015 17.26 5.01-22.881-89.494-40.415-93.015-17.26m-184.869-80.402c-9.348 21.48-96.204-19.685-85.488-40.515 9.347-21.477 96.203 19.688 85.488 40.515" style="fill:#eb8334"/><path d="M1952.076 2640.579a5.37 5.37 0 0 0-4.861-3.595c-119.676-3.559-167.484-65.199-195.823-96.363-23.911 47.116-6.902 153.302 80.747 155.541 20.378.845 39.167-2.653 59.738-9.732 28.529-11.808 62.203-39.754 60.199-45.851" style="fill:#521919"/><path d="M1855.736 2685.492c-34.591 5.816-76.867-11.2-92.531-43.974 34.244-15.259 85.112 6.852 92.531 43.974" style="fill:#c13d3d"/><path d="M1874.251 2683.573c-43.769 14.357-93.852 1.168-116.311-42.068.823-1.171-.804 1.012.279-.957.776-1.348-3.496-6.96-1.747-7.747 7.827-3.697 16.852 1.586 20.893 8.556 2.363-1.681 17.252 8.002 16.062 11.455 1.431-1.968 20.699 8.677 19.062 11.523 2.874-3.779 21.795 4.815 20.231 8.052 1.789-3.108 18.59 1.277 18.432 3.978 11.595-4.688 18.368 2.183 23.099 7.208m-89.38-98.613s65.549 44.421 110.033 52.741c0 0-11.026 16.13-24.517 13.53-3.091-.596-16.612-3.184-18.638-6.403-3.884 1.96-21.737-6.496-23.786-10.205-3.608.986-22.547-8.208-26.592-13.571-20.771-9.043-25.092-17.329-16.5-36.092" style="fill:#fff"/><path d="M1952.076 2640.579a5.37 5.37 0 0 0-4.861-3.595c-119.676-3.559-167.484-65.199-195.823-96.363-23.911 47.116-6.902 153.302 80.747 155.541 20.378.845 39.167-2.653 59.738-9.732 28.529-11.808 62.203-39.754 60.199-45.851m-84.656 42.442c-83.844 21.854-128.976-48.847-112.824-122.901 40.924 50.643 107.656 79.975 175.89 85.58-7.286 14.178-42.319 32.712-63.066 37.321m193.282-311.825c49.87 26.933 86.125 70.653 92.254 128.305 2.543-14.519 1.398-29.622-1.401-44.075-5.899-37.82-27.452-76.499-66.315-88.235-4.786-2.092-35.211-8.093-24.538 4.005m-172.444-89.385c-12.393-24.999-40.015-39.65-67.034-42.653-33.74-1.609-68.59 8.388-95.584 28.304 38.259-16.052 82.659-15.871 120.787.218 10.801 4.479 21.492 10.044 31.633 16.065 1.452.847 3.599 2.187 5.058 2.935 3.015 1.694 6.651-1.808 5.14-4.869m-133.46 423.32c-3.191-3.514-5.978-7.261-8.226-11.002-2.71-4.209 4.849-9.197 7.427-4.716 7.63 12.622 22.712 26.236 37.837 26.235 2.323 0 3.991 1.836 3.727 4.104-5.147 12.968-35.156-6.637-40.765-14.621"/><path d="M1920.479 2528.556c-1.681 53.083 49.562 118.461 79.139 124.913 9.485 2.137 29.097 6.635 50.333 10.727 22.03 3.758 57.773 11.757 76.852 6.577 5.953-2.617 11.762-5.891 16.733-9.53 31.496-25.239 74.095-69.913 93.857-108.326 5.854-11.787.04-26.028-12.391-30.332-22.38-7.748-57.492-19.658-89.935-29.603-48.738-14.815-90.499-26.353-146.621-22.021-33.264 2.729-68.014 19.129-67.967 57.595m-315.36-252.885c-15.495 48.704-23.056 115.322-11.749 160.756 6.253 18.702 79.282 68.464 99.152 82.16 24.901 17.164 106.773 11.069 145.461-26.581 57.142-55.61-44.994-134.296-76.638-155.481-34.36-22.938-93.714-55.23-125.534-72.323-11.6-6.215-26.005-.822-30.692 11.469" style="opacity:.5;fill:#fdff5e"/><path d="M1600.221 2273.804c-16.829 53.816-23.158 118.232-11.84 164.232 8.807 26.321 76.269 74.39 102.148 85.401 43.054 16.597 129.989 3.938 158.106-35.516 20.392-2.482 46.556 15.93 61.317 22.322 2.263 1.137 5.064 3.66 6.587 6.314-11.024 47.915 39.104 121.002 80.87 141.661 25.627 11.549 106.733 28.512 132.034 17.125 41.489-22.813 84.565-71.292 112.646-120.101l-.001.003c7.349-14.036-.269-32.773-15.371-37.616-34.326-11.894-100.418-34.166-138.789-43.327-17.444-4.184-105.517-23.199-148.835 7.428-9.574 1.418-21.941 1.948-29.179-2.847-8.597-5.696-18.052-9.922-28.062-12.404-11.057-2.742-17.297-7.906-21.679-15.338-21.379-101.511-152.979-148.858-221.88-191.563-13.781-7.789-32.783-.715-38.072 14.226m343.289 217.688c71.343-37.946 149.358-3.144 203.006 10.53 58.754 28.475 50.475 130.024-21.484 163.81-20.181 9.342-99.968-6.348-123.206-17.12-11.7-5.44-31.187-21.562-48.347-45.316-25.304-37.05-43.433-82.458-9.969-111.904m-345.147-56.672c-24.211-75.383 46.315-148.931 107.321-126.01 34.428 18.876 192.834 111.251 128.646 179.44-23.846 28.93-109.548 39.673-139.815 25.487-23.687-9.717-89.328-57.749-96.152-78.917" style="fill:#1a0e26"/><path d="M1805.254 3240.226c13.058-1.936 23.231 4.547 30.206 14.726 12.838 11.722 33.686 21.55 43.447 24.537 4.413 1.351 6.925 6.015 5.615 10.419-1.312 4.404-5.952 6.88-10.366 5.529-6.207-1.899-17.251-6.511-28.51-13.013 1.226 8.329.861 15.579-1.253 21.563 4.578 6.848 10.835 15.501 15.297 21.67 3.719 5.14 7.232 9.996 9.98 13.973 2.629 3.805 1.694 8.994-2.084 11.591-3.78 2.598-8.975 1.619-11.603-2.185-2.644-3.827-6.105-8.611-9.769-13.675-5.22-7.216-9.399-13.064-12.723-17.882a31 31 0 0 1-2.685 1.474c5.021 16.238 10.976 35.936 13.966 47.43 1.159 4.496-1.508 9-5.962 10.125-4.455 1.124-9.009-1.586-10.171-6.052-2.926-11.248-8.95-31.142-13.977-47.39-3.052.181-5.925-.014-8.613-.559 2.352 12.224 4.7 25.969 5.504 35.79a8.254 8.254 0 0 1-7.626 8.929c-4.186.308-7.903-2.538-8.808-6.528a8.5 8.5 0 0 1-.181-1.18c-1.146-13.987-5.849-37.556-8.71-51.07-3.958-6.049-6.617-13.597-7.925-21.955-3.564-22.777 4.216-42.896 26.951-46.267"/><path d="m2022.264 3110.517-223.976 143.555" style="fill:none;stroke:#000;stroke-width:19.6298;stroke-linecap:round;stroke-linejoin:round;stroke-miterlimit:10"/></svg>